<svg width="136" height="136" viewBox="0 0 136 136" fill="none" xmlns="http://www.w3.org/2000/svg">
<g id="cookies-svgrepo-com 1" clip-path="url(#clip0_1_4)">
<g id="cookie">
<path id="Vector" d="M127.402 70.0294L120.937 68.7363C118.785 68.306 116.623 69.4251 115.731 71.4303L108.806 87.0135C108.22 88.3328 107.058 89.3082 105.658 89.6586L102.05 90.5603C99.9621 91.0823 98.4977 92.9579 98.4977 95.11V120.115C98.4977 121.283 98.0613 122.41 97.2743 123.274L88.5634 132.832C80.7096 135.319 72.2436 136.429 63.4419 135.849C29.6132 133.621 2.20893 106.102 0.144754 72.2633C-2.26367 32.776 29.0477 2.09808e-05 68.0146 2.09808e-05C105.182 2.09808e-05 135.365 29.8231 135.985 66.8422L130.419 69.6251C129.487 70.0918 128.425 70.2339 127.402 70.0294Z" fill="#FFE6A1"/>
<g id="Group">
<path id="Vector_2" d="M89.118 21.1037C88.7052 21.1037 88.2985 21.1273 87.8876 21.1347C85.311 18.2445 81.5705 16.4141 77.3938 16.4141C71.2419 16.4141 66.0261 20.3692 64.1144 25.8698C55.6997 29.1999 48.1097 34.1543 41.731 40.3562C40.766 40.0653 39.7638 39.8624 38.7039 39.8624C32.8764 39.8624 28.1522 44.5865 28.1522 50.4141C28.1522 52.4493 28.7557 54.3328 29.754 55.9446C29.6825 56.0724 29.6063 56.1964 29.5354 56.3247C22.2161 56.8209 16.4284 62.8998 16.4284 70.345C16.4284 74.7328 18.4381 78.6495 21.586 81.2297C21.2877 83.8145 21.118 86.4384 21.118 89.1037C21.118 102.478 24.9945 114.939 31.6625 125.456C12.6474 113.399 0.0145874 92.1815 0.0145874 68C0.0145874 30.4446 30.4592 1.85966e-05 68.0146 1.85966e-05C92.196 1.85966e-05 113.414 12.6329 125.47 31.6479C114.953 24.9799 102.492 21.1037 89.118 21.1037Z" fill="#FFD796"/>
<path id="Vector_3" d="M52.7733 79.7242C56.0108 79.7242 58.6353 82.3488 58.6353 85.5863C58.6353 88.8238 56.0108 91.4484 52.7733 91.4484C49.5357 91.4484 46.9112 88.8238 46.9112 85.5863C46.9112 82.3488 49.5357 79.7242 52.7733 79.7242Z" fill="#FFD796"/>
<path id="Vector_4" d="M114.911 41.0346C118.149 41.0346 120.773 43.6591 120.773 46.8967C120.773 50.1342 118.149 52.7587 114.911 52.7587C111.674 52.7587 109.049 50.1342 109.049 46.8967C109.049 43.6591 111.674 41.0346 114.911 41.0346Z" fill="#FFD796"/>
<path id="Vector_5" d="M61.5663 41.0346C63.8325 41.0346 65.6696 42.8717 65.6696 45.138C65.6696 47.4042 63.8325 49.2413 61.5663 49.2413C59.3 49.2413 57.4629 47.4042 57.4629 45.138C57.4629 42.8717 59.3 41.0346 61.5663 41.0346Z" fill="#FFD796"/>
<path id="Vector_6" d="M93.2216 78.552C95.4878 78.552 97.325 80.3891 97.325 82.6554C97.325 84.9216 95.4878 86.7587 93.2216 86.7587C90.9554 86.7587 89.1182 84.9216 89.1182 82.6554C89.1182 80.3891 90.9554 78.552 93.2216 78.552Z" fill="#FFD796"/>
<path id="Vector_7" d="M76.8078 114.897C79.0741 114.897 80.9112 116.734 80.9112 119C80.9112 121.266 79.0741 123.103 76.8078 123.103C74.5416 123.103 72.7045 121.266 72.7045 119C72.7045 116.734 74.5416 114.897 76.8078 114.897Z" fill="#FFD796"/>
</g>
<g id="Group_2">
<path id="Vector_8" d="M64.6024 75.6006L61.8917 71.0826C60.2714 68.3823 61.7206 64.884 64.7756 64.1203L72.8442 62.1032C75.357 61.475 77.9033 63.0026 78.5313 65.5154L79.4543 69.2076C79.641 69.9545 79.641 70.7354 79.4543 71.4824L78.4784 75.3863C77.8714 77.8149 75.4638 79.3385 73.0092 78.8476L67.7041 77.7867C66.4084 77.5272 65.2824 76.7335 64.6024 75.6006Z" fill="#B97850"/>
<path id="Vector_9" d="M78.1368 46.5712L75.3098 41.8596C73.9043 39.517 74.7905 36.4738 77.2337 35.2521L86.2336 30.7522C88.9169 29.4103 92.1528 30.8988 92.8806 33.8093L93.8076 37.5174L94.8911 41.8521C95.5655 44.5498 93.7577 47.2387 91.0045 47.6321L82.8208 48.8014C80.9535 49.0681 79.1074 48.1891 78.1368 46.5712Z" fill="#B97850"/>
<path id="Vector_10" d="M28.7972 74.5455L25.347 68.795C24.2399 66.9497 24.5307 64.5878 26.0522 63.066L31.4822 57.6359C33.4587 55.6593 36.7142 55.8397 38.4604 58.0223L43.1155 63.8414C44.0297 64.9841 44.3581 66.4883 44.0029 67.9084L42.9412 72.1552C42.5016 73.9136 41.0885 75.2609 39.3114 75.6165L33.7381 76.7311C31.7948 77.12 29.817 76.245 28.7972 74.5455Z" fill="#B97850"/>
<path id="Vector_11" d="M47.8898 112.62L45.2293 108.186C43.6858 105.613 44.9214 102.273 47.7676 101.324L53.541 99.3993C55.2261 98.8378 57.0839 99.2763 58.34 100.532L61.4476 103.64C62.6123 104.804 63.0806 106.495 62.6811 108.093L61.8683 111.344C61.3464 113.432 59.4705 114.897 57.3184 114.897H51.9108C50.264 114.897 48.7374 114.032 47.8898 112.62Z" fill="#B97850"/>
<path id="Vector_12" d="M104.528 76.3752L101.813 73.6608C99.9821 71.8295 99.9821 68.8601 101.813 67.0286L103.142 65.7002C104.569 64.2728 106.749 63.919 108.555 64.8218L116.236 68.6622C118.202 69.6453 119.222 71.8617 118.689 73.9941L118.341 75.3857C117.734 77.8143 115.326 79.338 112.872 78.8471L106.924 77.6576C106.016 77.4765 105.182 77.0299 104.528 76.3752Z" fill="#B97850"/>
<path id="Vector_13" d="M87.0902 109.848L83.9758 105.695C82.8317 104.17 82.7252 102.103 83.7061 100.468L86.5879 95.6654C87.9654 93.3693 90.9827 92.6909 93.2105 94.176L99.0622 98.0773C101.302 99.5706 101.828 102.639 100.213 104.793L97.0315 109.035C96.4591 109.798 95.6678 110.368 94.7628 110.67L92.3249 111.483C90.4097 112.121 88.3012 111.463 87.0902 109.848Z" fill="#B97850"/>
<path id="Vector_14" d="M46.9596 35.7571L43.8975 31.9295C41.9316 29.4722 42.8961 25.8145 45.818 24.6455L49.9312 23.0002C51.0494 22.5529 52.2965 22.5529 53.4146 23.0002L58.0306 24.8468C60.7963 25.9529 61.8434 29.324 60.1912 31.8025L59.3983 32.9917C58.9454 33.6709 58.3236 34.2197 57.5936 34.5849L52.7194 37.022C50.7408 38.011 48.3409 37.4837 46.9596 35.7571Z" fill="#B97850"/>
</g>
<g id="Group_3">
<path id="Vector_15" d="M37.3012 58.1928L31.8713 63.6227C30.3498 65.1442 30.0587 67.5064 31.1661 69.3515L34.6163 75.102C34.9106 75.5923 35.2994 75.9905 35.7295 76.3326L33.7384 76.7305C31.7951 77.1191 29.817 76.2442 28.7972 74.545L25.347 68.7945C24.2399 66.9492 24.5307 64.5872 26.0522 63.0655L31.4822 57.6355C33.3142 55.8035 36.2302 55.8476 38.0391 57.5986C37.7799 57.7705 37.5302 57.9636 37.3012 58.1928Z" fill="#A5694B"/>
<path id="Vector_16" d="M58.2378 101.069L52.4644 102.993C49.6185 103.942 48.3823 107.282 49.9261 109.855L52.5866 114.289C52.7218 114.515 52.9006 114.701 53.0682 114.897H51.9106C50.2635 114.897 48.7369 114.032 47.8893 112.62L45.2288 108.186C43.685 105.613 44.9207 102.273 47.7671 101.324L53.5405 99.3992C55.2256 98.8377 57.0834 99.2763 58.3395 100.532L58.7765 100.969C58.5969 101.006 58.4147 101.01 58.2378 101.069Z" fill="#A5694B"/>
<path id="Vector_17" d="M77.2937 63.4514L69.2251 65.4686C66.1699 66.2325 64.7206 69.7306 66.3412 72.4309L69.0519 76.9489C69.3746 77.4868 69.8033 77.9408 70.2977 78.3049L67.7041 77.7862C66.4087 77.5272 65.2821 76.7332 64.6024 75.6001L61.8917 71.0821C60.2714 68.3817 61.7206 64.8834 64.7756 64.1198L72.8442 62.1026C74.544 61.6776 76.244 62.2545 77.3699 63.44C77.3444 63.4464 77.3192 63.4451 77.2937 63.4514Z" fill="#A5694B"/>
<path id="Vector_18" d="M90.9684 96.071L88.0866 100.874C87.1056 102.509 87.2122 104.575 88.3562 106.1L91.4707 110.253C91.8117 110.708 92.2351 111.064 92.6941 111.36L92.3246 111.483C90.4095 112.121 88.301 111.463 87.0897 109.848L83.9755 105.695C82.8315 104.17 82.725 102.104 83.7059 100.469L86.5877 95.6659C87.9607 93.3775 90.9615 92.6989 93.1869 94.1643C92.2952 94.5354 91.5057 95.1756 90.9684 96.071Z" fill="#A5694B"/>
<path id="Vector_19" d="M106.905 66.0126C105.074 67.8441 105.074 70.8132 106.905 72.6447L109.62 75.3591C110.274 76.0136 111.108 76.4602 112.016 76.6416L117.022 77.6427C115.951 78.6606 114.422 79.1576 112.871 78.8473L106.924 77.6579C106.016 77.4762 105.182 77.0299 104.528 76.3754L101.813 73.661C99.9821 71.8295 99.9821 68.8604 101.813 67.0289L103.142 65.7005C104.481 64.3615 106.473 64.0106 108.206 64.7116L106.905 66.0126Z" fill="#A5694B"/>
<path id="Vector_20" d="M83.0431 35.6455C80.5999 36.8672 79.7135 39.9104 81.1192 42.253L83.9463 46.9644C84.3171 47.5819 84.8412 48.0502 85.4192 48.4298L82.8214 48.8009C80.9535 49.0678 79.1076 48.1892 78.1371 46.5712L75.31 41.8596C73.9046 39.517 74.7907 36.4738 77.2339 35.2521L86.2338 30.7522C88.0276 29.8552 90.0519 30.2425 91.4249 31.4542L83.0431 35.6455Z" fill="#A5694B"/>
<path id="Vector_21" d="M54.6208 23.7841L50.5076 25.4293C47.586 26.5978 46.6215 30.256 48.5871 32.7133L51.6492 36.541C51.8437 36.784 52.062 36.9965 52.2926 37.191C50.405 37.9137 48.2439 37.3628 46.9596 35.7571L43.8975 31.9295C41.9316 29.4722 42.8961 25.8145 45.818 24.6455L49.9312 23.0002C51.0494 22.5529 52.2965 22.5529 53.4146 23.0002L55.0553 23.6566C54.91 23.6988 54.7621 23.7275 54.6208 23.7841Z" fill="#A5694B"/>
</g>
<path id="Vector_22" d="M18.7704 39.8644C18.4189 39.8644 18.0603 39.9444 17.7241 40.1117C16.5654 40.6911 16.0958 42.0991 16.6754 43.2578L19.0203 47.9474C19.5999 49.1061 21.0045 49.5709 22.1664 48.9961C23.325 48.4165 23.7947 47.0087 23.2151 45.85L20.8701 41.1604C20.4592 40.3386 19.6315 39.8644 18.7704 39.8644Z" fill="#C98850"/>
<path id="Vector_23" d="M60.98 9.37949H58.6351C57.3402 9.37949 56.2902 10.4282 56.2902 11.7244C56.2902 13.0204 57.3402 14.0694 58.6351 14.0694H60.98C62.275 14.0694 63.325 13.0207 63.325 11.7244C63.325 10.4282 62.275 9.37949 60.98 9.37949Z" fill="#925F4A"/>
<path id="Vector_24" d="M51.5984 53.9312C51.247 53.9312 50.8884 54.0111 50.5521 54.1784C49.3935 54.758 48.9238 56.1661 49.5034 57.3245L51.8484 62.0141C52.4266 63.1704 53.8315 63.6376 54.9944 63.0628C56.1531 62.4832 56.6227 61.0754 56.0431 59.9167L53.6982 55.2271C53.2873 54.405 52.4593 53.9312 51.5984 53.9312Z" fill="#C98850"/>
<g id="Group_4">
<path id="Vector_25" d="M37.5296 91.4484C37.1782 91.4484 36.8196 91.5283 36.4833 91.6957L31.7937 94.0406C30.635 94.6202 30.1654 96.028 30.745 97.1867C31.3233 98.3429 32.7292 98.8125 33.8911 98.2353L38.5807 95.8907C39.7393 95.3111 40.209 93.9033 39.6294 92.7446C39.2185 91.9225 38.3905 91.4484 37.5296 91.4484Z" fill="#925F4A"/>
<path id="Vector_26" d="M65.6699 124.276H60.9803C59.6854 124.276 58.6354 125.325 58.6354 126.621C58.6354 127.917 59.6854 128.966 60.9803 128.966H65.6699C66.9648 128.966 68.0149 127.917 68.0149 126.621C68.0149 125.325 66.9648 124.276 65.6699 124.276Z" fill="#925F4A"/>
</g>
<path id="Vector_27" d="M75.0515 89.1036C74.1904 89.1036 73.3627 89.5775 72.9518 90.3996L70.6068 95.0892C70.0272 96.2479 70.4969 97.6562 71.6555 98.2353C72.8166 98.8125 74.2236 98.3429 74.8016 97.1866L77.1465 92.497C77.7261 91.3383 77.2565 89.93 76.0978 89.3509C75.761 89.1836 75.403 89.1036 75.0515 89.1036Z" fill="#C98850"/>
<g id="Group_5">
<path id="Vector_28" d="M10.7009 77.6217C10.3856 77.7771 10.0996 78.0074 9.8714 78.3062C9.0878 79.3379 9.28941 80.8087 10.3214 81.592L14.4975 84.7625C15.5284 85.5464 16.9981 85.3429 17.7833 84.3125C18.5669 83.2809 18.3653 81.8101 17.3333 81.0268L13.1574 77.8565C12.4251 77.3008 11.4731 77.2413 10.7009 77.6217Z" fill="#925F4A"/>
<path id="Vector_29" d="M98.4974 51.5862C97.8974 51.5862 97.2973 51.8152 96.8397 52.2731L92.15 56.9628C91.2342 57.8786 91.2342 59.3627 92.15 60.2785C93.0659 61.1944 94.55 61.1944 95.4658 60.2785L100.155 55.5889C101.071 54.6731 101.071 53.189 100.155 52.2731C99.6972 51.8152 99.0972 51.5862 98.4974 51.5862Z" fill="#925F4A"/>
</g>
<path id="Vector_30" d="M103.187 28.1379C102.587 28.1379 101.987 28.3669 101.529 28.8248C100.613 29.7407 100.613 31.2247 101.529 32.1406L103.874 34.4855C104.79 35.4014 106.274 35.4014 107.19 34.4855C108.106 33.5697 108.106 32.0856 107.19 31.1698L104.845 28.8248C104.387 28.3669 103.787 28.1379 103.187 28.1379Z" fill="#C98850"/>
</g>
<g id="crumbs">
<g id="Group_6">
<path id="Vector_31" d="M107.877 126.621V120.705C107.877 119.046 109.552 117.911 111.092 118.528L118.127 121.341C119.017 121.698 119.601 122.56 119.601 123.519V126.621C119.601 127.916 118.551 128.966 117.256 128.966H110.221C108.927 128.966 107.877 127.916 107.877 126.621Z" fill="#FFE6A1"/>
<path id="Vector_32" d="M112.89 108.135L111.394 97.6602C111.042 95.1962 112.676 92.8864 115.116 92.3984L119.411 91.5396C121.274 91.1667 123.178 91.9556 124.233 93.5369L125.848 95.9594C126.684 97.2145 126.866 98.7952 126.337 100.207L121.445 113.252C120.836 114.875 118.755 115.326 117.53 114.1L114.217 110.788C113.499 110.07 113.034 109.139 112.89 108.135Z" fill="#FFE6A1"/>
</g>
<g id="Group_7">
<path id="Vector_33" d="M124.645 95.7049L120.351 96.5637C117.91 97.0519 116.276 99.3618 116.628 101.825L118.124 112.3C118.258 113.234 118.694 114.087 119.328 114.782C118.691 114.814 118.038 114.609 117.529 114.101L114.216 110.788C113.499 110.071 113.033 109.14 112.89 108.135L111.394 97.661C111.042 95.1968 112.676 92.8872 115.117 92.3992L119.411 91.5405C121.274 91.1681 123.179 91.9564 124.233 93.5377L125.646 95.6569C125.313 95.6502 124.98 95.6377 124.645 95.7049Z" fill="#FFD796"/>
<path id="Vector_34" d="M115.782 123.218C114.242 122.602 112.566 123.736 112.566 125.395V128.966H110.221C108.926 128.966 107.876 127.916 107.876 126.621V120.705C107.876 119.046 109.552 117.911 111.092 118.528L118.127 121.341C119.017 121.698 119.601 122.56 119.601 123.519V124.745L115.782 123.218Z" fill="#FFD796"/>
<path id="Vector_35" d="M125.459 84.861L124.073 82.089C123.744 81.4289 123.744 80.6519 124.073 79.9919L124.706 78.7264C125.337 77.465 126.93 77.0416 128.104 77.8238L131.884 80.3438C132.536 80.7789 132.928 81.511 132.928 82.2948V84.8212C132.928 86.4216 131.36 87.5518 129.842 87.0455L126.815 86.0367C126.225 85.8404 125.738 85.4175 125.459 84.861Z" fill="#FFD796"/>
</g>
</g>
</g>
<defs>
<clipPath id="clip0_1_4">
<rect width="136" height="136" fill="white" transform="matrix(1 0 0 -1 0 136)"/>
</clipPath>
</defs>
</svg>
